<?xml version="1.0" encoding="UTF-8"?>
<svg version="1.1" xmlns="http://www.w3.org/2000/svg" width="283" height="360">
<path d="M0 0 C1.08365845 -0.04616455 1.08365845 -0.04616455 2.18920898 -0.09326172 C13.4996026 -0.09576596 23.60345472 6.60318727 33.125 12.0625 C34.21127686 12.67818848 35.29755371 13.29387695 36.41674805 13.92822266 C39.67758779 15.77869262 42.9330343 17.6383482 46.1875 19.5 C47.9555393 20.5068439 49.72375533 21.51337756 51.4921875 22.51953125 C55.77437265 24.95918752 60.05086884 27.40865961 64.32617188 29.86035156 C69.79764778 32.99571267 75.27424358 36.12212268 80.75 39.25 C93.99868602 46.81795772 93.99868602 46.81795772 100.54615784 50.56942749 C103.48868101 52.25535957 106.43170472 53.94041628 109.375 55.625 C109.95537018 55.95719543 110.53574036 56.28939087 111.13369751 56.63165283 C119.3740748 61.34596919 127.64507468 66.00286463 135.9375 70.625 C144.39605731 75.34539677 152.81299622 80.13191519 161.1875 85 C162.16041992 85.56348145 163.13333984 86.12696289 164.13574219 86.70751953 C177.41703839 94.46381503 187.6600193 101.11814248 192.8046875 116.32421875 C194.50564863 125.9919264 194.01032575 135.86729309 189.1875 144.5 C188.78660156 145.26699219 188.38570312 146.03398437 187.97265625 146.82421875 C181.91206646 157.17113871 170.53386775 162.68969229 160.3125 168.25 C158.09201776 169.47578361 155.8719719 170.702358 153.65234375 171.9296875 C152.01048096 172.83412598 152.01048096 172.83412598 150.33544922 173.75683594 C145.82462317 176.25468749 141.34720229 178.80880982 136.875 181.375 C135.62275635 182.09212158 135.62275635 182.09212158 134.34521484 182.82373047 C131.6254649 184.38159588 128.90646428 185.94076381 126.1875 187.5 C121.60518343 190.1267792 117.0219435 192.7519353 112.4375 195.375 C111.84436005 195.71446655 111.25122009 196.05393311 110.6401062 196.40368652 C102.26668424 201.19401985 93.86440283 205.9291783 85.4375 210.625 C77.34025024 215.1377091 69.30493469 219.74176348 61.3125 224.4375 C52.53818052 229.5880883 43.70377056 234.61757223 34.8125 239.5625 C33.70148926 240.18181396 32.59047852 240.80112793 31.44580078 241.43920898 C17.04931028 249.41481668 4.85329938 255.89899827 -12.125 251.375 C-22.19942882 247.84069218 -30.81038227 240.80197764 -35.6875 231.3125 C-38.36477218 225.6831363 -38.96124489 221.01794903 -38.95967102 214.80393982 C-38.96518605 213.63439203 -38.96518605 213.63439203 -38.9708125 212.44121701 C-38.98183413 209.82595766 -38.98569063 207.21073807 -38.98950195 204.59545898 C-38.99576786 202.72111383 -39.00241477 200.84676992 -39.00941467 198.97242737 C-39.03044605 192.81365828 -39.04081764 186.65488897 -39.05078125 180.49609375 C-39.05482944 178.37401886 -39.05894638 176.25194409 -39.06313133 174.12986946 C-39.08218262 164.15754067 -39.09641261 154.18521927 -39.1047433 144.21287578 C-39.11450954 132.71266586 -39.14081338 121.21264873 -39.18124419 109.71250671 C-39.21144059 100.81720934 -39.22621561 91.92196711 -39.22952431 83.02661949 C-39.23187118 77.71712155 -39.24078407 72.40782959 -39.26598549 67.09838676 C-39.28933219 62.09885383 -39.29347291 57.09966152 -39.28322411 52.10008812 C-39.28273021 50.27121597 -39.28900739 48.44232668 -39.30278015 46.61350632 C-39.3993962 33.01678832 -38.21312317 22.45697703 -29.015625 11.7265625 C-25.61579487 8.29056397 -22.08379143 5.74687726 -17.8125 3.5 C-17.173125 3.16097656 -16.53375 2.82195313 -15.875 2.47265625 C-10.76551091 0.30711107 -5.47583768 0.13554336 0 0 Z " fill="#5566F4" transform="translate(61.8125,53.5)"/>
<path d="M0 0 C0.66 0.33 1.32 0.66 2 1 C-1.63 4.63 -5.26 8.26 -9 12 C-9 7.8407692 -6.75316432 5.85455565 -4 3 C-1.6875 1.125 -1.6875 1.125 0 0 Z " fill="#8D98EC" transform="translate(39,60)"/>
</svg>
