<?xml version="1.0" standalone="no"?>
<!DOCTYPE svg PUBLIC "-//W3C//DTD SVG 20010904//EN"
 "http://www.w3.org/TR/2001/REC-SVG-20010904/DTD/svg10.dtd">
<svg version="1.0" xmlns="http://www.w3.org/2000/svg"
 width="225.000000pt" height="225.000000pt" viewBox="0 0 225.000000 225.000000"
 preserveAspectRatio="xMidYMid meet">

<g transform="translate(0.000000,225.000000) scale(0.100000,-0.100000)"
fill="#E83322" stroke="none">
<path d="M993 2239 c-244 -28 -471 -138 -651 -313 -450 -437 -450 -1165 0
-1602 439 -428 1127 -428 1566 0 450 437 450 1165 0 1602 -246 240 -576 353
-915 313z m537 -331 c7 -20 14 -134 17 -280 3 -137 7 -248 8 -248 1 0 33 11
72 24 l71 24 15 -40 c12 -29 13 -40 4 -44 -102 -38 -283 -92 -288 -86 -23 26
-29 93 -29 313 0 132 -2 239 -3 239 -2 0 -30 -9 -62 -20 -32 -11 -62 -20 -66
-20 -8 0 -33 69 -27 75 6 6 252 94 265 94 6 1 16 -14 23 -31z m-312 -110 c6
-18 13 -140 15 -271 3 -131 8 -241 11 -244 2 -3 33 4 67 16 35 12 66 21 70 21
7 0 29 -54 29 -71 0 -7 -264 -99 -286 -99 -25 0 -34 82 -34 318 l0 241 -70
-24 -70 -24 -11 40 c-7 21 -10 41 -8 43 8 7 245 84 261 85 10 1 20 -11 26 -31z
m-262 -373 c79 -148 142 -274 141 -279 -3 -10 -90 -44 -115 -45 -7 -1 -29 32
-49 73 -35 71 -37 73 -63 65 l-27 -10 14 -75 c8 -42 12 -81 10 -88 -5 -12
-115 -51 -124 -43 -3 4 -103 598 -103 619 0 8 141 57 159 55 7 -1 78 -123 157
-272z m-342 -73 c47 -141 86 -265 86 -275 0 -64 -92 -127 -187 -127 -70 0 -92
21 -126 125 -15 43 -26 80 -24 81 3 3 107 44 112 44 2 0 15 -36 30 -80 25 -76
40 -95 50 -67 4 9 -129 425 -159 497 -5 12 8 21 56 37 35 12 66 22 70 22 3 1
45 -115 92 -257z m1187 -55 c24 -18 43 -61 79 -174 40 -126 35 -143 -56 -188
l-61 -30 34 -100 c18 -55 31 -105 29 -110 -4 -12 -115 -49 -122 -42 -7 6 -194
569 -194 582 0 16 178 73 230 74 25 0 52 -5 61 -12z m-346 -101 c18 -8 39 -25
46 -37 22 -42 149 -433 149 -460 0 -87 -198 -169 -270 -111 -27 22 -170 428
-170 482 0 58 57 108 147 129 54 13 60 13 98 -3z m-295 -79 c0 -2 45 -135 100
-296 70 -205 96 -293 87 -296 -63 -23 -102 -35 -112 -35 -8 0 -32 56 -60 139
-35 106 -50 139 -61 134 -8 -3 -14 -8 -14 -12 0 -4 20 -67 45 -141 25 -74 45
-135 45 -136 0 -5 -131 -46 -134 -43 -5 6 -196 583 -196 591 0 10 123 49 131
41 4 -5 22 -55 40 -112 30 -91 49 -124 64 -109 3 2 -13 57 -35 122 -27 82 -35
118 -27 121 73 27 95 34 110 34 9 1 17 0 17 -2z m-342 -152 c31 -26 79 -143
65 -156 -16 -13 -107 -39 -114 -32 -3 5 -14 32 -24 61 -10 33 -22 52 -32 52
-12 0 -14 -8 -10 -36 9 -57 28 -76 120 -122 48 -24 99 -56 115 -71 30 -31 62
-118 62 -173 0 -69 -76 -126 -181 -135 -54 -5 -60 -4 -87 23 -28 29 -88 180
-74 188 19 10 114 37 118 34 2 -3 15 -36 27 -73 24 -71 32 -81 55 -66 10 6 9
19 -8 64 -21 56 -23 57 -110 103 -50 25 -101 55 -115 65 -29 24 -69 140 -60
180 8 36 53 76 111 99 68 26 106 25 142 -5z"/>
<path d="M805 1420 c3 -14 8 -42 11 -62 7 -39 11 -43 30 -30 8 5 3 23 -18 62
-16 30 -27 44 -23 30z"/>
<path d="M1670 1193 c0 -22 63 -193 71 -193 22 0 21 38 -5 116 -22 67 -31 84
-47 84 -10 0 -19 -3 -19 -7z"/>
<path d="M1351 1101 c-12 -8 -2 -46 55 -210 37 -111 71 -207 75 -213 4 -6 14
-8 22 -5 13 5 5 39 -53 213 -39 114 -73 211 -77 215 -5 5 -14 4 -22 0z"/>
</g>
</svg>
