<svg version="1.1" id="Слой_1" xmlns="http://www.w3.org/2000/svg" x="0" y="0" width="586.9" height="585.5" viewBox="0 0 586.9 585.5" xml:space="preserve"><g id="Слой_x0020_1"><g id="_2647635857536"><path d="M386 16.8c153.7 50.8 236.9 216 185.8 368.9-51.1 152.9-217.2 235.6-370.9 184.8C47.2 519.7-36 354.5 15.1 201.6c3.3-9.9 7.1-19.5 11.4-28.8l.7-111L135.3 2.1v45C208.1-1.4 296.4-12.8 386 16.8z" fill="#e31e24"/><path d="M523.2 180.9c7.7 19.2 12.4 43.2 12.5 67.9 0 24.7-4.7 46.6-12.4 62.4-7.9 16.2-29.1 26.5-42.1 26.7v35c-17.8.1-26.7.2-46.8.3v-32.6c3.7-9.7 6.7-20.4 8.7-31.8 2-11.3 3.1-23.4 3.3-36-3 28.7-11.7 53.7-24.2 71.8-13 18.8-25.7 30.4-50.7 30.5-25.1.1-58.6-24.9-77.3-65.3-12.2 9.3-26.6 14.6-42.5 14.5v49c-38 .2-76 .4-113.9.5l85.6-126.6 47.4 52.2 53.2-67.1 38.8 45.9 63.9-93-52.3 50.6-52.5-60.3-45.3 54.2-62-67.6-79.2 87.9-.1-248V0c20.3 8.1 39.9 15.8 58.7 23.1 18.8 7.4 36.8 14.4 54.1 21.2 1.2.5 2.4 1 3.6 1.4v.1c19.9 8.8 37.4 25.1 51.2 45.3 13.3 19.5 23.5 43.1 29 68.2-1-20.9-5.1-41.6-11.9-60.9 15.4-10.5 28.6-14.7 51.3-5.7 22.7 8.9 49.8 40.8 63 77.6v-52.9c36.8 10.6 72.6 22 88.9 63.5zM206.5 445.1c0-3.4-1.5-5.1-4.4-5.1l-20.7.1.1 36.7h-12.6l-.1-36.7-24.7.1.1 36.7h-12.6l-.1-48.9 72.8-.2c5 0 8.9 1.6 11.4 4.7 2.3 2.9 3.5 6.3 3.5 10.2l.1 34h-12.6l-.2-31.6zm37 14c0 3.5 1.5 5.2 4.4 5.2l38.3-.1-.1-36.7h12.6l.1 48.9-53 .2c-5.1 0-8.9-1.5-11.4-4.6-2.4-3.1-3.6-6.5-3.7-10.3l-.1-34h12.6l.3 31.4zm81-1.8c-3.9 0-7.1-1.3-9.6-4s-3.7-6.3-3.7-10.9c0-6 2-10.4 6.1-13.1 2-1.3 4.3-1.9 7.1-2l53.6-.1v11.5l-51.1.1c-2.8 0-4.2 1.2-4.2 3.7s1.4 3.7 4.2 3.7H367c3.9 0 7.1 1.3 9.6 4s3.7 6.3 3.7 10.9c0 6.2-2 10.5-6.1 13.1-1.9 1.2-4.3 1.9-7.1 1.9l-55.9.2v-11.5l53.4-.1c2.8 0 4.2-1.3 4.2-3.8s-1.4-3.7-4.2-3.7l-40.1.1zm78.1 18.8H390l-.1-48.9h12.6l.1 48.9zm-.2-53.9h-12.6v-11.7h12.6v11.7zm78 4.8v12.2l-43.4.1c-2.9 0-5.1 1.2-6.7 3.7-1.3 2.1-2 5-2 8.5 0 3.6.7 6.4 2 8.5 1.5 2.5 3.7 3.7 6.7 3.7l43.4-.1v12.2l-45 .1c-6.6 0-11.6-2.1-15-6.4-3.5-4.3-5.2-10.3-5.2-18 0-7.7 1.7-13.7 5.1-18 3.4-4.3 8.5-6.5 15-6.5h45.1z" fill="#fefefe"/></g></g></svg>