<?xml version="1.0" standalone="no"?>
<!DOCTYPE svg PUBLIC "-//W3C//DTD SVG 20010904//EN"
 "http://www.w3.org/TR/2001/REC-SVG-20010904/DTD/svg10.dtd">
<svg version="1.0" xmlns="http://www.w3.org/2000/svg"
 width="225.000000pt" height="225.000000pt" viewBox="0 0 225.000000 225.000000"
 preserveAspectRatio="xMidYMid meet">

<g transform="translate(0.000000,225.000000) scale(0.100000,-0.100000)"
fill="#000000" stroke="none">
<path d="M1125 2011 c-65 -40 -69 -50 -77 -204 -3 -78 -7 -238 -7 -354 l-1
-213 -145 0 -145 0 0 206 c0 191 -2 209 -21 244 -37 65 -65 75 -219 75 -153 0
-187 -11 -225 -75 -19 -33 -20 -54 -23 -340 -1 -168 1 -472 5 -677 l8 -371 25
-27 c53 -57 25 -55 727 -55 597 0 651 1 682 18 60 30 76 62 79 163 3 65 7 89
17 89 20 0 74 48 90 81 9 17 15 57 15 103 l0 74 31 7 c41 9 97 67 104 109 4
18 5 88 3 154 -3 131 -11 151 -72 196 -25 19 -42 21 -171 21 -129 0 -146 -2
-171 -21 -56 -41 -69 -69 -73 -160 -2 -64 -6 -84 -17 -84 -12 0 -14 75 -14
479 l0 478 -23 34 c-38 58 -74 69 -222 69 -109 0 -135 -3 -160 -19z m265 -216
l0 -95 -100 0 -100 0 0 95 0 95 100 0 100 0 0 -95z m-790 -265 l0 -100 -95 0
-95 0 0 93 c0 52 3 97 7 100 3 4 46 7 95 7 l88 0 0 -100z m785 0 l0 -95 -95 0
-95 0 -3 84 c-2 46 0 90 2 98 4 11 27 13 98 11 l93 -3 0 -95z m-785 -265 l0
-95 -95 0 -95 0 0 95 0 95 95 0 95 0 0 -95z m780 0 l0 -95 -95 0 -95 0 0 95 0
95 95 0 95 0 0 -95z m-780 -265 l0 -100 -95 0 -95 0 0 100 0 100 95 0 95 0 0
-100z m265 0 l0 -95 -97 -3 -98 -3 0 94 c0 52 3 97 7 101 4 4 48 5 98 4 l90
-3 0 -95z m260 0 l0 -95 -95 0 -95 0 -3 84 c-2 46 0 90 2 98 4 11 27 13 98 11
l93 -3 0 -95z m255 0 l0 -100 -95 0 -95 0 0 100 0 100 95 0 95 0 0 -100z m520
0 l0 -100 -95 0 -95 0 0 100 0 100 95 0 95 0 0 -100z m-1300 -265 l0 -95 -95
0 -95 0 0 95 0 95 95 0 95 0 0 -95z m270 0 l0 -95 -100 0 -100 0 0 95 0 95
100 0 100 0 0 -95z m260 0 l0 -95 -100 0 -100 0 0 95 0 95 100 0 100 0 0 -95z
m260 0 l0 -95 -100 0 -100 0 0 95 0 95 100 0 100 0 0 -95z m370 0 l0 -95 -95
0 -95 0 0 95 0 95 95 0 95 0 0 -95z m-1155 -265 l0 -95 -95 0 -95 0 -3 84 c-2
46 0 90 2 98 4 11 27 13 98 11 l93 -3 0 -95z m260 0 l0 -95 -95 0 -95 0 -3 84
c-2 46 0 90 2 98 4 11 27 13 98 11 l93 -3 0 -95z m260 0 l0 -95 -95 0 -95 0
-3 98 -3 98 98 -3 98 -3 0 -95z m255 0 l0 -100 -95 0 -95 0 0 100 0 100 95 0
95 0 0 -100z m260 0 l0 -100 -95 0 -95 0 0 100 0 100 95 0 95 0 0 -100z"/>
</g>
</svg>
